<svg id="visual" viewBox="0 0 900 600" width="900" height="600" xmlns="http://www.w3.org/2000/svg" xmlns:xlink="http://www.w3.org/1999/xlink" version="1.1"><g><g transform="translate(101 194)"><path d="M60.2 -37.1C71.3 -15.7 68.7 11.3 56.4 33.3C44.1 55.4 22.1 72.5 1.4 71.7C-19.4 70.9 -38.7 52.2 -48.2 31.8C-57.8 11.4 -57.4 -10.8 -47.8 -31.5C-38.1 -52.2 -19 -71.3 2.8 -73C24.6 -74.6 49.2 -58.6 60.2 -37.1Z" stroke="#ffffff" fill="none" stroke-width="20"></path></g><g transform="translate(843 479)"><path d="M40.9 -22.8C48.4 -10.6 46.6 7.6 38.3 21.3C29.9 35 15 44.1 1 43.5C-13 43 -26.1 32.8 -33.2 19.8C-40.4 6.8 -41.7 -9 -35.2 -20.6C-28.6 -32.2 -14.3 -39.6 1.2 -40.3C16.7 -41 33.4 -34.9 40.9 -22.8Z" stroke="#ffffff" fill="none" stroke-width="20"></path></g><g transform="translate(545 274)"><path d="M23 -13C27.9 -4.8 28.6 6.1 24.1 15.9C19.6 25.7 9.8 34.4 -0.1 34.4C-10 34.5 -20.1 26 -25.9 15.4C-31.7 4.9 -33.2 -7.6 -28.2 -15.9C-23.2 -24.2 -11.6 -28.4 -1.3 -27.6C9 -26.9 18.1 -21.3 23 -13Z" stroke="#ffffff" fill="none" stroke-width="20"></path></g><g transform="translate(270 574)"><path d="M25.6 -15.3C30.1 -6.9 28.6 4.4 23.4 12.7C18.1 21 9.1 26.3 -0.1 26.4C-9.3 26.5 -18.7 21.3 -22.5 13.9C-26.3 6.4 -24.6 -3.4 -19.9 -11.9C-15.2 -20.3 -7.6 -27.5 1.5 -28.3C10.5 -29.2 21.1 -23.7 25.6 -15.3Z" stroke="#ffffff" fill="none" stroke-width="20"></path></g><g transform="translate(793 53)"><path d="M11.7 -6.6C14.2 -2.5 14.6 3.1 12.3 8.1C10 13 5 17.4 -0.4 17.6C-5.8 17.8 -11.5 13.9 -13.9 8.9C-16.2 3.9 -15.2 -2.1 -12.3 -6.5C-9.5 -10.9 -4.7 -13.6 -0.1 -13.6C4.6 -13.6 9.3 -10.8 11.7 -6.6Z" stroke="#ffffff" fill="none" stroke-width="20"></path></g><g transform="translate(455 491)"><path d="M27.6 -14.4C33.1 -6.6 32.8 6.1 27.2 15.3C21.7 24.5 10.8 30.2 1.4 29.4C-7.9 28.5 -15.9 21.1 -19.7 13C-23.4 4.8 -23 -4.1 -19 -11C-15.1 -18 -7.5 -22.9 1.8 -24C11.1 -25 22.2 -22.1 27.6 -14.4Z" stroke="#ffffff" fill="none" stroke-width="20"></path></g><g transform="translate(507 42)"><path d="M54.2 -31.3C63.9 -14.5 61.1 9.6 50 24.6C38.9 39.5 19.4 45.5 0.7 45C-18 44.6 -36 37.9 -46.7 23.1C-57.5 8.3 -61 -14.5 -52 -30.9C-43 -47.4 -21.5 -57.5 0.4 -57.7C22.2 -57.9 44.5 -48.2 54.2 -31.3Z" stroke="#ffffff" fill="none" stroke-width="20"></path></g><g transform="translate(300 67)"><path d="M21.6 -11.2C26.9 -3.2 29.5 7.7 25.5 15.5C21.4 23.3 10.7 28 1.4 27.1C-7.9 26.3 -15.7 20 -19.9 12.1C-24.1 4.3 -24.6 -5.1 -20.7 -12.3C-16.7 -19.6 -8.4 -24.6 -0.1 -24.6C8.1 -24.5 16.2 -19.3 21.6 -11.2Z" stroke="#ffffff" fill="none" stroke-width="20"></path></g><g transform="translate(862 270)"><path d="M52 -27.8C62.5 -11.8 62.7 12.3 52.4 27.8C42 43.3 21 50.2 -0.8 50.7C-22.6 51.2 -45.2 45.2 -57.8 28.4C-70.3 11.7 -72.7 -15.9 -61.4 -32.3C-50.1 -48.7 -25.1 -54.1 -2.2 -52.8C20.7 -51.6 41.5 -43.7 52 -27.8Z" stroke="#ffffff" fill="none" stroke-width="20"></path></g><g transform="translate(84 521)"><path d="M36.8 -24.1C44.4 -8.2 44.8 9 37.5 23.5C30.2 38 15.1 49.8 0.4 49.6C-14.2 49.3 -28.4 37 -38.9 20.6C-49.5 4.2 -56.3 -16.1 -49.2 -31.8C-42.1 -47.5 -21.1 -58.5 -3.2 -56.6C14.6 -54.8 29.3 -40.1 36.8 -24.1Z" stroke="#ffffff" fill="none" stroke-width="20"></path></g><g transform="translate(300 332)"><path d="M25.2 -16C30 -6.2 29.5 5.2 24.3 15.3C19.2 25.5 9.6 34.3 -0.1 34.3C-9.9 34.4 -19.8 25.8 -27.1 14.4C-34.4 3 -39.1 -11.2 -34.2 -21C-29.2 -30.8 -14.6 -36.2 -2.2 -35C10.2 -33.7 20.4 -25.7 25.2 -16Z" stroke="#ffffff" fill="none" stroke-width="20"></path></g></g></svg>