<svg id="visual" viewBox="0 0 900 450" width="900" height="450" xmlns="http://www.w3.org/2000/svg" xmlns:xlink="http://www.w3.org/1999/xlink" version="1.1"><path d="M0 69L90 37L180 51L270 78L360 64L450 51L540 51L630 69L720 60L810 73L900 37L900 0L810 0L720 0L630 0L540 0L450 0L360 0L270 0L180 0L90 0L0 0Z" fill="#34607c"></path><path d="M0 123L90 64L180 109L270 136L360 127L450 91L540 91L630 127L720 109L810 105L900 100L900 35L810 71L720 58L630 67L540 49L450 49L360 62L270 76L180 49L90 35L0 67Z" fill="#2c5574"></path><path d="M0 226L90 114L180 186L270 190L360 231L450 177L540 222L630 222L720 226L810 154L900 190L900 98L810 103L720 107L630 125L540 89L450 89L360 125L270 134L180 107L90 62L0 121Z" fill="#264b6c"></path><path d="M0 334L90 339L180 276L270 334L360 312L450 253L540 384L630 294L720 321L810 280L900 343L900 188L810 152L720 224L630 220L540 220L450 175L360 229L270 188L180 184L90 112L0 224Z" fill="#214164"></path><path d="M0 451L90 451L180 451L270 451L360 451L450 451L540 451L630 451L720 451L810 451L900 451L900 341L810 278L720 319L630 292L540 382L450 251L360 310L270 332L180 274L90 337L0 332Z" fill="#1c375b"></path></svg>