<svg id="visual" viewBox="0 0 900 450" width="900" height="450" xmlns="http://www.w3.org/2000/svg" xmlns:xlink="http://www.w3.org/1999/xlink" version="1.1"><path d="M0 374L75 385L150 394L225 385L300 343L375 394L450 356L525 374L600 347L675 365L750 348L825 336L900 354L900 451L825 451L750 451L675 451L600 451L525 451L450 451L375 451L300 451L225 451L150 451L75 451L0 451Z" fill="#48beb9"></path><path d="M0 378L75 398L150 369L225 403L300 407L375 374L450 369L525 384L600 398L675 404L750 399L825 388L900 380L900 451L825 451L750 451L675 451L600 451L525 451L450 451L375 451L300 451L225 451L150 451L75 451L0 451Z" fill="#319eac"></path><path d="M0 420L75 380L150 387L225 400L300 390L375 383L450 404L525 410L600 388L675 400L750 384L825 402L900 403L900 451L825 451L750 451L675 451L600 451L525 451L450 451L375 451L300 451L225 451L150 451L75 451L0 451Z" fill="#307e98"></path><path d="M0 405L75 426L150 427L225 425L300 412L375 438L450 439L525 429L600 427L675 404L750 438L825 417L900 415L900 451L825 451L750 451L675 451L600 451L525 451L450 451L375 451L300 451L225 451L150 451L75 451L0 451Z" fill="#34607c"></path></svg>