<svg id="visual" viewBox="0 0 900 450" width="900" height="450" xmlns="http://www.w3.org/2000/svg" xmlns:xlink="http://www.w3.org/1999/xlink" version="1.1"><g><g transform="translate(95 4)"><path d="M0 -71.9L62.2 -35.9L62.2 35.9L0 71.9L-62.2 35.9L-62.2 -35.9Z" stroke="#ffffff" fill="none" stroke-width="3"></path></g><g transform="translate(485 145)"><path d="M0 -58L50.2 -29L50.2 29L0 58L-50.2 29L-50.2 -29Z" stroke="#ffffff" fill="none" stroke-width="3"></path></g><g transform="translate(850 4)"><path d="M0 -68L58.9 -34L58.9 34L0 68L-58.9 34L-58.9 -34Z" stroke="#ffffff" fill="none" stroke-width="3"></path></g><g transform="translate(99 160)"><path d="M0 -35L30.3 -17.5L30.3 17.5L0 35L-30.3 17.5L-30.3 -17.5Z" stroke="#ffffff" fill="none" stroke-width="3"></path></g><g transform="translate(679 198)"><path d="M0 -32L27.7 -16L27.7 16L0 32L-27.7 16L-27.7 -16Z" stroke="#ffffff" fill="none" stroke-width="3"></path></g><g transform="translate(476 350)"><path d="M0 -57L49.4 -28.5L49.4 28.5L0 57L-49.4 28.5L-49.4 -28.5Z" stroke="#ffffff" fill="none" stroke-width="3"></path></g><g transform="translate(798 432)"><path d="M0 -39L33.8 -19.5L33.8 19.5L0 39L-33.8 19.5L-33.8 -19.5Z" stroke="#ffffff" fill="none" stroke-width="3"></path></g><g transform="translate(16 304)"><path d="M0 -59L51.1 -29.5L51.1 29.5L0 59L-51.1 29.5L-51.1 -29.5Z" stroke="#ffffff" fill="none" stroke-width="3"></path></g></g></svg>