<svg id="visual" viewBox="0 0 900 450" width="900" height="450" xmlns="http://www.w3.org/2000/svg" xmlns:xlink="http://www.w3.org/1999/xlink" version="1.1"><g><g transform="translate(229 23)"><path d="M0 -76.9L66.6 -38.4L66.6 38.4L0 76.9L-66.6 38.4L-66.6 -38.4Z" stroke="#ffffff" fill="none" stroke-width="5"></path></g><g transform="translate(888 81)"><path d="M0 -43L37.2 -21.5L37.2 21.5L0 43L-37.2 21.5L-37.2 -21.5Z" stroke="#ffffff" fill="none" stroke-width="5"></path></g><g transform="translate(32 313)"><path d="M0 -40L34.6 -20L34.6 20L0 40L-34.6 20L-34.6 -20Z" stroke="#ffffff" fill="none" stroke-width="5"></path></g><g transform="translate(234 319)"><path d="M0 -47L40.7 -23.5L40.7 23.5L0 47L-40.7 23.5L-40.7 -23.5Z" stroke="#ffffff" fill="none" stroke-width="5"></path></g><g transform="translate(459 84)"><path d="M0 -61L52.8 -30.5L52.8 30.5L0 61L-52.8 30.5L-52.8 -30.5Z" stroke="#ffffff" fill="none" stroke-width="5"></path></g><g transform="translate(510 273)"><path d="M0 -39L33.8 -19.5L33.8 19.5L0 39L-33.8 19.5L-33.8 -19.5Z" stroke="#ffffff" fill="none" stroke-width="5"></path></g><g transform="translate(650 126)"><path d="M0 -31L26.8 -15.5L26.8 15.5L0 31L-26.8 15.5L-26.8 -15.5Z" stroke="#ffffff" fill="none" stroke-width="5"></path></g><g transform="translate(872 435)"><path d="M0 -72L62.4 -36L62.4 36L0 72L-62.4 36L-62.4 -36Z" stroke="#ffffff" fill="none" stroke-width="5"></path></g></g></svg>