<svg id="visual" viewBox="0 0 900 600" width="900" height="600" xmlns="http://www.w3.org/2000/svg" xmlns:xlink="http://www.w3.org/1999/xlink" version="1.1"><g><g transform="translate(6 187)"><path d="M0 -80.1L69.4 -40.1L69.4 40.1L0 80.1L-69.4 40.1L-69.4 -40.1Z" fill="none" stroke="#1C375B" stroke-width="2"></path></g><g transform="translate(742 546)"><path d="M0 -30L26 -15L26 15L0 30L-26 15L-26 -15Z" fill="none" stroke="#1C375B" stroke-width="2"></path></g><g transform="translate(321 473)"><path d="M0 -73L63.2 -36.5L63.2 36.5L0 73L-63.2 36.5L-63.2 -36.5Z" stroke="#1C375B" fill="none" stroke-width="2"></path></g><g transform="translate(760 195)"><path d="M0 -58L50.2 -29L50.2 29L0 58L-50.2 29L-50.2 -29Z" stroke="#1C375B" fill="none" stroke-width="2"></path></g><g transform="translate(602 104)"><path d="M0 -30L26 -15L26 15L0 30L-26 15L-26 -15Z" stroke="#1C375B" fill="none" stroke-width="2"></path></g><g transform="translate(440 240)"><path d="M0 -48L41.6 -24L41.6 24L0 48L-41.6 24L-41.6 -24Z" stroke="#1C375B" fill="none" stroke-width="2"></path></g><g transform="translate(722 360)"><path d="M0 -29L25.1 -14.5L25.1 14.5L0 29L-25.1 14.5L-25.1 -14.5Z" stroke="#1C375B" fill="none" stroke-width="2"></path></g><g transform="translate(524 412)"><path d="M0 -59L51.1 -29.5L51.1 29.5L0 59L-51.1 29.5L-51.1 -29.5Z" stroke="#1C375B" fill="none" stroke-width="2"></path></g><g transform="translate(892 368)"><path d="M0 -64L55.4 -32L55.4 32L0 64L-55.4 32L-55.4 -32Z" stroke="#1C375B" fill="none" stroke-width="2"></path></g><g transform="translate(284 109)"><path d="M0 -76L65.8 -38L65.8 38L0 76L-65.8 38L-65.8 -38Z" stroke="#1C375B" fill="none" stroke-width="2"></path></g><g transform="translate(494 597)"><path d="M0 -67L58 -33.5L58 33.5L0 67L-58 33.5L-58 -33.5Z" stroke="#1C375B" fill="none" stroke-width="2"></path></g><g transform="translate(10 469)"><path d="M0 -32L27.7 -16L27.7 16L0 32L-27.7 16L-27.7 -16Z" stroke="#1C375B" fill="none" stroke-width="2"></path></g><g transform="translate(143 7)"><path d="M0 -45L39 -22.5L39 22.5L0 45L-39 22.5L-39 -22.5Z" stroke="#1C375B" fill="none" stroke-width="2"></path></g><g transform="translate(160 331)"><path d="M0 -36L31.2 -18L31.2 18L0 36L-31.2 18L-31.2 -18Z" stroke="#1C375B" fill="none" stroke-width="2"></path></g><g transform="translate(884 56)"><path d="M0 -48L41.6 -24L41.6 24L0 48L-41.6 24L-41.6 -24Z" stroke="#1C375B" fill="none" stroke-width="2"></path></g><g transform="translate(455 39)"><path d="M0 -58L50.2 -29L50.2 29L0 58L-50.2 29L-50.2 -29Z" stroke="#1C375B" fill="none" stroke-width="2"></path></g><g transform="translate(169 529)"><path d="M0 -62L53.7 -31L53.7 31L0 62L-53.7 31L-53.7 -31Z" stroke="#1C375B" fill="none" stroke-width="2"></path></g></g></svg>