<svg id="visual" viewBox="0 0 900 450" width="900" height="450" xmlns="http://www.w3.org/2000/svg" xmlns:xlink="http://www.w3.org/1999/xlink" version="1.1"><g><g transform="translate(540 346)"><path d="M0 -71.9L62.2 -35.9L62.2 35.9L0 71.9L-62.2 35.9L-62.2 -35.9Z" stroke="#1C375B" fill="none" stroke-width="3"></path></g><g transform="translate(15 404)"><path d="M0 -52L45 -26L45 26L0 52L-45 26L-45 -26Z" stroke="#1C375B" fill="none" stroke-width="3"></path></g><g transform="translate(236 53)"><path d="M0 -59L51.1 -29.5L51.1 29.5L0 59L-51.1 29.5L-51.1 -29.5Z" stroke="#1C375B" fill="none" stroke-width="3"></path></g><g transform="translate(134 306)"><path d="M0 -66L57.2 -33L57.2 33L0 66L-57.2 33L-57.2 -33Z" stroke="#1C375B" fill="none" stroke-width="3"></path></g><g transform="translate(727 3)"><path d="M0 -48L41.6 -24L41.6 24L0 48L-41.6 24L-41.6 -24Z" stroke="#1C375B" fill="none" stroke-width="3"></path></g><g transform="translate(625 117)"><path d="M0 -61L52.8 -30.5L52.8 30.5L0 61L-52.8 30.5L-52.8 -30.5Z" stroke="#1C375B" fill="none" stroke-width="3"></path></g><g transform="translate(240 437)"><path d="M0 -67L58 -33.5L58 33.5L0 67L-58 33.5L-58 -33.5Z" stroke="#1C375B" fill="none" stroke-width="3"></path></g><g transform="translate(876 173)"><path d="M0 -34L29.4 -17L29.4 17L0 34L-29.4 17L-29.4 -17Z" stroke="#1C375B" fill="none" stroke-width="3"></path></g><g transform="translate(9 228)"><path d="M0 -61L52.8 -30.5L52.8 30.5L0 61L-52.8 30.5L-52.8 -30.5Z" stroke="#1C375B" fill="none" stroke-width="3"></path></g><g transform="translate(714 291)"><path d="M0 -47L40.7 -23.5L40.7 23.5L0 47L-40.7 23.5L-40.7 -23.5Z" stroke="#1C375B" fill="none" stroke-width="3"></path></g></g></svg>