<svg id="visual" viewBox="0 0 900 450" width="900" height="450" xmlns="http://www.w3.org/2000/svg" xmlns:xlink="http://www.w3.org/1999/xlink" version="1.1"><path d="M0 412L50 412L50 412L100 412L100 418L150 418L150 407L200 407L200 414L250 414L250 409L300 409L300 440L350 440L350 422L400 422L400 439L450 439L450 423L500 423L500 442L550 442L550 426L600 426L600 446L650 446L650 447L700 447L700 431L750 431L750 413L800 413L800 439L850 439L850 420L900 420L900 434L900 451L900 451L850 451L850 451L800 451L800 451L750 451L750 451L700 451L700 451L650 451L650 451L600 451L600 451L550 451L550 451L500 451L500 451L450 451L450 451L400 451L400 451L350 451L350 451L300 451L300 451L250 451L250 451L200 451L200 451L150 451L150 451L100 451L100 451L50 451L50 451L0 451Z" fill="#022020"></path><path d="M0 435L50 435L50 447L100 447L100 421L150 421L150 410L200 410L200 444L250 444L250 415L300 415L300 448L350 448L350 448L400 448L400 444L450 444L450 446L500 446L500 424L550 424L550 420L600 420L600 426L650 426L650 448L700 448L700 440L750 440L750 442L800 442L800 431L850 431L850 418L900 418L900 437L900 451L900 451L850 451L850 451L800 451L800 451L750 451L750 451L700 451L700 451L650 451L650 451L600 451L600 451L550 451L550 451L500 451L500 451L450 451L450 451L400 451L400 451L350 451L350 451L300 451L300 451L250 451L250 451L200 451L200 451L150 451L150 451L100 451L100 451L50 451L50 451L0 451Z" fill="#013f3c"></path><path d="M0 435L50 435L50 419L100 419L100 422L150 422L150 420L200 420L200 422L250 422L250 429L300 429L300 430L350 430L350 422L400 422L400 432L450 432L450 446L500 446L500 424L550 424L550 419L600 419L600 435L650 435L650 442L700 442L700 436L750 436L750 427L800 427L800 415L850 415L850 436L900 436L900 448L900 451L900 451L850 451L850 451L800 451L800 451L750 451L750 451L700 451L700 451L650 451L650 451L600 451L600 451L550 451L550 451L500 451L500 451L450 451L450 451L400 451L400 451L350 451L350 451L300 451L300 451L250 451L250 451L200 451L200 451L150 451L150 451L100 451L100 451L50 451L50 451L0 451Z" fill="#884900"></path><path d="M0 425L50 425L50 449L100 449L100 436L150 436L150 445L200 445L200 449L250 449L250 437L300 437L300 425L350 425L350 436L400 436L400 441L450 441L450 445L500 445L500 447L550 447L550 434L600 434L600 442L650 442L650 425L700 425L700 447L750 447L750 444L800 444L800 444L850 444L850 439L900 439L900 423L900 451L900 451L850 451L850 451L800 451L800 451L750 451L750 451L700 451L700 451L650 451L650 451L600 451L600 451L550 451L550 451L500 451L500 451L450 451L450 451L400 451L400 451L350 451L350 451L300 451L300 451L250 451L250 451L200 451L200 451L150 451L150 451L100 451L100 451L50 451L50 451L0 451Z" fill="#be330a"></path><path d="M0 429L50 429L50 444L100 444L100 448L150 448L150 443L200 443L200 442L250 442L250 431L300 431L300 443L350 443L350 437L400 437L400 440L450 440L450 435L500 435L500 447L550 447L550 435L600 435L600 440L650 440L650 446L700 446L700 431L750 431L750 441L800 441L800 441L850 441L850 430L900 430L900 444L900 451L900 451L850 451L850 451L800 451L800 451L750 451L750 451L700 451L700 451L650 451L650 451L600 451L600 451L550 451L550 451L500 451L500 451L450 451L450 451L400 451L400 451L350 451L350 451L300 451L300 451L250 451L250 451L200 451L200 451L150 451L150 451L100 451L100 451L50 451L50 451L0 451Z" fill="#884900"></path><path d="M0 436L50 436L50 442L100 442L100 440L150 440L150 434L200 434L200 444L250 444L250 441L300 441L300 446L350 446L350 436L400 436L400 444L450 444L450 441L500 441L500 433L550 433L550 439L600 439L600 441L650 441L650 443L700 443L700 435L750 435L750 448L800 448L800 442L850 442L850 441L900 441L900 436L900 451L900 451L850 451L850 451L800 451L800 451L750 451L750 451L700 451L700 451L650 451L650 451L600 451L600 451L550 451L550 451L500 451L500 451L450 451L450 451L400 451L400 451L350 451L350 451L300 451L300 451L250 451L250 451L200 451L200 451L150 451L150 451L100 451L100 451L50 451L50 451L0 451Z" fill="#013f3c"></path><path d="M0 439L50 439L50 442L100 442L100 439L150 439L150 445L200 445L200 447L250 447L250 445L300 445L300 447L350 447L350 440L400 440L400 443L450 443L450 444L500 444L500 447L550 447L550 443L600 443L600 444L650 444L650 447L700 447L700 440L750 440L750 438L800 438L800 440L850 440L850 447L900 447L900 438L900 451L900 451L850 451L850 451L800 451L800 451L750 451L750 451L700 451L700 451L650 451L650 451L600 451L600 451L550 451L550 451L500 451L500 451L450 451L450 451L400 451L400 451L350 451L350 451L300 451L300 451L250 451L250 451L200 451L200 451L150 451L150 451L100 451L100 451L50 451L50 451L0 451Z" fill="#022020"></path></svg>