<svg id="visual" viewBox="0 0 900 450" width="900" height="450" xmlns="http://www.w3.org/2000/svg" xmlns:xlink="http://www.w3.org/1999/xlink" version="1.1"><path d="M0 445L50 445L50 445L100 445L100 421L150 421L150 414L200 414L200 423L250 423L250 417L300 417L300 413L350 413L350 427L400 427L400 427L450 427L450 446L500 446L500 440L550 440L550 413L600 413L600 446L650 446L650 437L700 437L700 438L750 438L750 407L800 407L800 419L850 419L850 429L900 429L900 434L900 451L900 451L850 451L850 451L800 451L800 451L750 451L750 451L700 451L700 451L650 451L650 451L600 451L600 451L550 451L550 451L500 451L500 451L450 451L450 451L400 451L400 451L350 451L350 451L300 451L300 451L250 451L250 451L200 451L200 451L150 451L150 451L100 451L100 451L50 451L50 451L0 451Z" fill="#be330a"></path><path d="M0 414L50 414L50 440L100 440L100 420L150 420L150 447L200 447L200 419L250 419L250 443L300 443L300 432L350 432L350 433L400 433L400 413L450 413L450 423L500 423L500 415L550 415L550 423L600 423L600 422L650 422L650 416L700 416L700 435L750 435L750 420L800 420L800 415L850 415L850 437L900 437L900 427L900 451L900 451L850 451L850 451L800 451L800 451L750 451L750 451L700 451L700 451L650 451L650 451L600 451L600 451L550 451L550 451L500 451L500 451L450 451L450 451L400 451L400 451L350 451L350 451L300 451L300 451L250 451L250 451L200 451L200 451L150 451L150 451L100 451L100 451L50 451L50 451L0 451Z" fill="#ba3914"></path><path d="M0 422L50 422L50 447L100 447L100 437L150 437L150 426L200 426L200 444L250 444L250 432L300 432L300 424L350 424L350 428L400 428L400 448L450 448L450 420L500 420L500 446L550 446L550 444L600 444L600 428L650 428L650 421L700 421L700 426L750 426L750 421L800 421L800 422L850 422L850 427L900 427L900 444L900 451L900 451L850 451L850 451L800 451L800 451L750 451L750 451L700 451L700 451L650 451L650 451L600 451L600 451L550 451L550 451L500 451L500 451L450 451L450 451L400 451L400 451L350 451L350 451L300 451L300 451L250 451L250 451L200 451L200 451L150 451L150 451L100 451L100 451L50 451L50 451L0 451Z" fill="#b63d1b"></path><path d="M0 434L50 434L50 437L100 437L100 435L150 435L150 433L200 433L200 425L250 425L250 437L300 437L300 424L350 424L350 433L400 433L400 443L450 443L450 443L500 443L500 445L550 445L550 430L600 430L600 423L650 423L650 436L700 436L700 424L750 424L750 424L800 424L800 427L850 427L850 422L900 422L900 448L900 451L900 451L850 451L850 451L800 451L800 451L750 451L750 451L700 451L700 451L650 451L650 451L600 451L600 451L550 451L550 451L500 451L500 451L450 451L450 451L400 451L400 451L350 451L350 451L300 451L300 451L250 451L250 451L200 451L200 451L150 451L150 451L100 451L100 451L50 451L50 451L0 451Z" fill="#b24222"></path><path d="M0 431L50 431L50 430L100 430L100 444L150 444L150 434L200 434L200 431L250 431L250 444L300 444L300 444L350 444L350 438L400 438L400 445L450 445L450 428L500 428L500 432L550 432L550 447L600 447L600 443L650 443L650 429L700 429L700 434L750 434L750 448L800 448L800 445L850 445L850 428L900 428L900 448L900 451L900 451L850 451L850 451L800 451L800 451L750 451L750 451L700 451L700 451L650 451L650 451L600 451L600 451L550 451L550 451L500 451L500 451L450 451L450 451L400 451L400 451L350 451L350 451L300 451L300 451L250 451L250 451L200 451L200 451L150 451L150 451L100 451L100 451L50 451L50 451L0 451Z" fill="#ad4628"></path><path d="M0 445L50 445L50 435L100 435L100 446L150 446L150 446L200 446L200 447L250 447L250 433L300 433L300 445L350 445L350 434L400 434L400 443L450 443L450 433L500 433L500 432L550 432L550 447L600 447L600 442L650 442L650 442L700 442L700 448L750 448L750 441L800 441L800 446L850 446L850 435L900 435L900 435L900 451L900 451L850 451L850 451L800 451L800 451L750 451L750 451L700 451L700 451L650 451L650 451L600 451L600 451L550 451L550 451L500 451L500 451L450 451L450 451L400 451L400 451L350 451L350 451L300 451L300 451L250 451L250 451L200 451L200 451L150 451L150 451L100 451L100 451L50 451L50 451L0 451Z" fill="#a94a2e"></path><path d="M0 443L50 443L50 444L100 444L100 442L150 442L150 445L200 445L200 440L250 440L250 445L300 445L300 446L350 446L350 444L400 444L400 446L450 446L450 441L500 441L500 441L550 441L550 438L600 438L600 438L650 438L650 443L700 443L700 445L750 445L750 440L800 440L800 443L850 443L850 440L900 440L900 441L900 451L900 451L850 451L850 451L800 451L800 451L750 451L750 451L700 451L700 451L650 451L650 451L600 451L600 451L550 451L550 451L500 451L500 451L450 451L450 451L400 451L400 451L350 451L350 451L300 451L300 451L250 451L250 451L200 451L200 451L150 451L150 451L100 451L100 451L50 451L50 451L0 451Z" fill="#a44e34"></path></svg>