<svg id="visual" viewBox="0 0 900 900" width="900" height="900" xmlns="http://www.w3.org/2000/svg" xmlns:xlink="http://www.w3.org/1999/xlink" version="1.1"><path d="M70 0L74 0L74 82L78 82L78 164L48 164L48 245L81 245L81 327L57 327L57 409L62 409L62 491L49 491L49 573L52 573L52 655L73 655L73 736L67 736L67 818L44 818L44 900L0 900L0 818L0 818L0 736L0 736L0 655L0 655L0 573L0 573L0 491L0 491L0 409L0 409L0 327L0 327L0 245L0 245L0 164L0 164L0 82L0 82L0 0L0 0Z" fill="#1c375b"></path><path d="M42 0L72 0L72 82L38 82L38 164L56 164L56 245L59 245L59 327L34 327L34 409L51 409L51 491L60 491L60 573L38 573L38 655L37 655L37 736L45 736L45 818L75 818L75 900L0 900L0 818L0 818L0 736L0 736L0 655L0 655L0 573L0 573L0 491L0 491L0 409L0 409L0 327L0 327L0 245L0 245L0 164L0 164L0 82L0 82L0 0L0 0Z" fill="#435475"></path><path d="M57 0L62 0L62 82L56 82L56 164L37 164L37 245L29 245L29 327L61 327L61 409L49 409L49 491L52 491L52 573L33 573L33 655L46 655L46 736L36 736L36 818L28 818L28 900L0 900L0 818L0 818L0 736L0 736L0 655L0 655L0 573L0 573L0 491L0 491L0 409L0 409L0 327L0 327L0 245L0 245L0 164L0 164L0 82L0 82L0 0L0 0Z" fill="#67738f"></path><path d="M40 0L27 0L27 82L52 82L52 164L45 164L45 245L26 245L26 327L37 327L37 409L43 409L43 491L50 491L50 573L45 573L45 655L48 655L48 736L49 736L49 818L28 818L28 900L0 900L0 818L0 818L0 736L0 736L0 655L0 655L0 573L0 573L0 491L0 491L0 409L0 409L0 327L0 327L0 245L0 245L0 164L0 164L0 82L0 82L0 0L0 0Z" fill="#8b94aa"></path><path d="M40 0L29 0L29 82L24 82L24 164L34 164L34 245L42 245L42 327L17 327L17 409L36 409L36 491L41 491L41 573L39 573L39 655L42 655L42 736L22 736L22 818L27 818L27 900L0 900L0 818L0 818L0 736L0 736L0 655L0 655L0 573L0 573L0 491L0 491L0 409L0 409L0 327L0 327L0 245L0 245L0 164L0 164L0 82L0 82L0 0L0 0Z" fill="#b1b6c6"></path><path d="M20 0L30 0L30 82L30 82L30 164L16 164L16 245L23 245L23 327L23 327L23 409L24 409L24 491L17 491L17 573L26 573L26 655L31 655L31 736L13 736L13 818L23 818L23 900L0 900L0 818L0 818L0 736L0 736L0 655L0 655L0 573L0 573L0 491L0 491L0 409L0 409L0 327L0 327L0 245L0 245L0 164L0 164L0 82L0 82L0 0L0 0Z" fill="#d7dae2"></path><path d="M6 0L17 0L17 82L10 82L10 164L20 164L20 245L13 245L13 327L16 327L16 409L3 409L3 491L15 491L15 573L9 573L9 655L17 655L17 736L18 736L18 818L4 818L4 900L0 900L0 818L0 818L0 736L0 736L0 655L0 655L0 573L0 573L0 491L0 491L0 409L0 409L0 327L0 327L0 245L0 245L0 164L0 164L0 82L0 82L0 0L0 0Z" fill="#ffffff"></path></svg>