<svg id="visual" viewBox="0 0 900 900" width="900" height="900" xmlns="http://www.w3.org/2000/svg" xmlns:xlink="http://www.w3.org/1999/xlink" version="1.1"><path d="M0 830L82 830L82 826L164 826L164 822L245 822L245 852L327 852L327 819L409 819L409 843L491 843L491 838L573 838L573 851L655 851L655 848L736 848L736 827L818 827L818 833L900 833L900 856L900 901L900 901L818 901L818 901L736 901L736 901L655 901L655 901L573 901L573 901L491 901L491 901L409 901L409 901L327 901L327 901L245 901L245 901L164 901L164 901L82 901L82 901L0 901Z" fill="#1c375b"></path><path d="M0 858L82 858L82 828L164 828L164 862L245 862L245 844L327 844L327 841L409 841L409 866L491 866L491 849L573 849L573 840L655 840L655 862L736 862L736 863L818 863L818 855L900 855L900 825L900 901L900 901L818 901L818 901L736 901L736 901L655 901L655 901L573 901L573 901L491 901L491 901L409 901L409 901L327 901L327 901L245 901L245 901L164 901L164 901L82 901L82 901L0 901Z" fill="#435475"></path><path d="M0 843L82 843L82 838L164 838L164 844L245 844L245 863L327 863L327 871L409 871L409 839L491 839L491 851L573 851L573 848L655 848L655 867L736 867L736 854L818 854L818 864L900 864L900 872L900 901L900 901L818 901L818 901L736 901L736 901L655 901L655 901L573 901L573 901L491 901L491 901L409 901L409 901L327 901L327 901L245 901L245 901L164 901L164 901L82 901L82 901L0 901Z" fill="#67738f"></path><path d="M0 860L82 860L82 873L164 873L164 848L245 848L245 855L327 855L327 874L409 874L409 863L491 863L491 857L573 857L573 850L655 850L655 855L736 855L736 852L818 852L818 851L900 851L900 872L900 901L900 901L818 901L818 901L736 901L736 901L655 901L655 901L573 901L573 901L491 901L491 901L409 901L409 901L327 901L327 901L245 901L245 901L164 901L164 901L82 901L82 901L0 901Z" fill="#8b94aa"></path><path d="M0 860L82 860L82 871L164 871L164 876L245 876L245 866L327 866L327 858L409 858L409 883L491 883L491 864L573 864L573 859L655 859L655 861L736 861L736 858L818 858L818 878L900 878L900 873L900 901L900 901L818 901L818 901L736 901L736 901L655 901L655 901L573 901L573 901L491 901L491 901L409 901L409 901L327 901L327 901L245 901L245 901L164 901L164 901L82 901L82 901L0 901Z" fill="#b1b6c6"></path><path d="M0 880L82 880L82 870L164 870L164 870L245 870L245 884L327 884L327 877L409 877L409 877L491 877L491 876L573 876L573 883L655 883L655 874L736 874L736 869L818 869L818 887L900 887L900 877L900 901L900 901L818 901L818 901L736 901L736 901L655 901L655 901L573 901L573 901L491 901L491 901L409 901L409 901L327 901L327 901L245 901L245 901L164 901L164 901L82 901L82 901L0 901Z" fill="#d7dae2"></path><path d="M0 894L82 894L82 883L164 883L164 890L245 890L245 880L327 880L327 887L409 887L409 884L491 884L491 897L573 897L573 885L655 885L655 891L736 891L736 883L818 883L818 882L900 882L900 896L900 901L900 901L818 901L818 901L736 901L736 901L655 901L655 901L573 901L573 901L491 901L491 901L409 901L409 901L327 901L327 901L245 901L245 901L164 901L164 901L82 901L82 901L0 901Z" fill="#ffffff"></path></svg>