<?xml version="1.0" standalone="no"?>
<!DOCTYPE svg PUBLIC "-//W3C//DTD SVG 20010904//EN"
 "http://www.w3.org/TR/2001/REC-SVG-20010904/DTD/svg10.dtd">
<svg version="1.0" xmlns="http://www.w3.org/2000/svg"
 width="512.000000pt" height="512.000000pt" viewBox="0 0 512.000000 512.000000"
 preserveAspectRatio="xMidYMid meet">
<metadata>
Created by potrace 1.14, written by Peter Selinger 2001-2017
</metadata>
<g transform="translate(0.000000,512.000000) scale(0.100000,-0.100000)"
fill="#000000" stroke="none">
<path d="M2355 5109 c-283 -41 -575 -173 -822 -372 -81 -65 -311 -253 -338
-275 -11 -9 -84 -68 -161 -129 -78 -62 -148 -123 -157 -136 -35 -53 -29 -127
14 -187 43 -59 29 -154 -30 -198 -45 -35 -135 -38 -174 -7 -14 11 -42 33 -61
49 -46 37 -108 44 -153 19 -47 -26 -300 -230 -351 -283 -83 -85 -123 -196
-118 -323 4 -96 27 -163 82 -239 66 -93 414 -516 450 -547 145 -128 388 -141
546 -30 48 34 289 229 314 254 27 27 47 86 41 122 -3 15 -19 54 -36 86 -23 43
-30 68 -26 94 17 132 160 180 259 87 48 -45 89 -63 137 -58 37 4 40 1 96 -69
32 -39 65 -81 75 -92 9 -11 101 -126 205 -255 104 -129 274 -341 379 -470 104
-129 275 -341 379 -470 104 -129 200 -249 214 -266 14 -17 33 -40 41 -50 168
-209 395 -490 400 -494 3 -3 21 -25 40 -50 43 -56 45 -58 120 -150 73 -90 53
-65 229 -284 168 -209 201 -244 283 -297 158 -102 383 -115 555 -31 118 57
217 153 274 263 64 126 76 334 26 457 -14 34 -36 79 -48 100 -19 32 -243 318
-259 332 -4 3 -79 95 -167 205 -89 110 -223 277 -300 370 -76 94 -185 229
-243 300 -57 72 -112 139 -122 150 -10 11 -127 155 -260 320 -133 165 -264
327 -292 361 -59 71 -79 95 -223 276 -59 74 -125 154 -145 179 -21 24 -101
122 -179 218 l-141 173 11 42 c7 28 7 54 1 77 -8 29 -105 160 -186 252 -14 15
-22 32 -19 37 13 21 197 135 290 180 178 86 367 130 619 145 230 14 246 19
287 77 17 23 23 46 24 84 0 87 -35 121 -240 223 -229 114 -436 184 -650 219
-120 21 -383 26 -490 11z"/>
</g>
</svg>
